<?xml version="1.0" encoding="utf-8"?>
<!-- Generator: Adobe Illustrator 25.3.1, SVG Export Plug-In . SVG Version: 6.00 Build 0)  -->
<svg version="1.1" id="Layer_1" xmlns="http://www.w3.org/2000/svg" xmlns:xlink="http://www.w3.org/1999/xlink" x="0px" y="0px"
	 viewBox="0 0 595.3 841.9" style="enable-background:new 0 0 595.3 841.9;" xml:space="preserve">
<style type="text/css">
	.st0{fill:#2DBDEF;}
	.st1{fill:#131E32;}
</style>
<path class="st0" d="M83.3,377.2H2.9c-2.7,0-5,2.3-5,5.1v9.1c0,2.8,2.3,5.1,5,5.1h80.4c2.8,0,5-2.3,5.1-5.1v-9
	C88.4,379.5,86.1,377.2,83.3,377.2L83.3,377.2z M83.3,427.7H2.9c-1.3,0-2.6,0.5-3.5,1.5c-1,1-1.5,2.2-1.5,3.6v9.1
	c0,2.8,2.3,5.1,5,5.1h80.4c2.8,0,5-2.2,5.1-5.1v-9.1C88.3,429.9,86.1,427.7,83.3,427.7z M48.2,452.9H2.9c-1.3,0-2.6,0.5-3.5,1.5
	s-1.5,2.2-1.5,3.6v9.1c0,2.8,2.3,5.1,5,5.1h45.2c2.8,0,5-2.3,5-5v-9.1C53.2,455.1,51,452.9,48.2,452.9z M88.4,402.4H2.9
	c-1.3,0-2.6,0.5-3.5,1.5s-1.5,2.2-1.5,3.6v9.1c0,2.8,2.3,5.1,5,5.1h85.4c2.8,0,5-2.3,5-5.1v-9.1C93.4,404.8,91.1,402.5,88.4,402.4z"
	/>
<path class="st1" d="M181.9,397.6c-2.5-2.6-5.4-4.6-8.7-6s-6.8-2.1-10.4-2.1c-3.5-0.1-6.9,0.7-10.1,2.2c-2.1,1-4,2.4-5.6,4.1v-1.6
	c0-0.8-0.3-1.6-0.8-2.2c-0.5-0.6-1.3-1-2.2-1H133c-0.8,0-1.6,0.3-2.1,1c-0.6,0.6-0.9,1.4-0.8,2.2V469c0,0.8,0.3,1.6,0.8,2.2
	c0.6,0.6,1.3,0.9,2.1,0.9h11.4c0.8,0,1.5-0.3,2.1-0.9c0.6-0.5,1-1.3,0.9-2.2v-25.6c1.6,1.8,3.7,3.1,6,3.9c3,1.1,6.1,1.7,9.3,1.7
	c3.6,0,7.2-0.7,10.5-2.1c3.3-1.4,6.3-3.4,8.8-6c2.6-2.7,4.6-5.9,6-9.4c1.6-3.9,2.3-8.1,2.2-12.3c0.1-4.2-0.7-8.4-2.2-12.4
	C186.5,403.5,184.5,400.3,181.9,397.6L181.9,397.6z M171.7,424.7c-0.6,1.6-1.5,3-2.7,4.3c-2.3,2.5-5.6,3.9-9,3.9
	c-1.7,0-3.4-0.3-5-1.1c-1.5-0.7-2.9-1.6-4.1-2.8s-2.1-2.7-2.7-4.3c-1.3-3.4-1.3-7.1,0-10.5c0.6-1.6,1.6-3,2.7-4.2
	c1.2-1.2,2.6-2.2,4.1-2.9c1.6-0.7,3.3-1.1,5-1.1c1.8,0,3.4,0.3,5.1,1.1c1.5,0.7,2.9,1.6,4,2.8c1.2,1.2,2,2.6,2.7,4.2
	C173,417.6,172.9,421.3,171.7,424.7z M251.3,391.1H240c-0.8,0-1.6,0.3-2.1,0.9c-0.6,0.6-0.9,1.4-0.9,2.3v1.4c-1.4-1.7-3.2-3-5.1-3.9
	c-3.1-1.5-6.5-2.2-9.9-2.2c-7.3,0-14.2,2.9-19.4,8c-2.7,2.7-4.8,5.9-6.2,9.4c-1.6,3.9-2.4,8.1-2.3,12.4c-0.1,4.2,0.7,8.4,2.3,12.4
	c1.5,3.5,3.5,6.7,6.2,9.4c5.1,5.2,12.1,8.1,19.3,8.1c3.4,0.1,6.8-0.7,9.9-2.2c1.9-1,3.8-2.3,5.2-3.9v1.5c0,0.8,0.3,1.6,0.9,2.2
	c0.6,0.5,1.3,0.9,2.1,0.9h11.3c0.8,0,1.6-0.3,2.1-0.9c0.6-0.6,0.9-1.4,0.9-2.2v-50.3c0-0.8-0.3-1.6-0.8-2.2
	C252.9,391.5,252.1,391.1,251.3,391.1L251.3,391.1z M236,424.7c-0.6,1.6-1.5,3-2.7,4.3c-1.2,1.2-2.5,2.2-4,2.9
	c-3.2,1.5-6.9,1.5-10.1,0c-1.5-0.7-2.9-1.7-4.1-2.9c-1.2-1.2-2.1-2.7-2.7-4.3c-1.2-3.4-1.2-7.1,0-10.5c0.6-1.6,1.5-2.9,2.7-4.2
	c1.2-1.2,2.5-2.2,4.1-2.9c3.2-1.5,6.9-1.5,10,0c1.5,0.7,2.9,1.6,4,2.8s2,2.6,2.7,4.2C237.3,417.6,237.3,421.3,236,424.7z
	 M363.9,417.9c-1.6-1.4-3.5-2.6-5.5-3.4c-2.1-0.9-4.4-1.5-6.6-2l-8.6-1.7c-2.2-0.4-3.8-1-4.6-1.7c-0.7-0.5-1.2-1.3-1.2-2.2
	s0.5-1.7,1.6-2.4c1.5-0.8,3.1-1.2,4.8-1.1c2.2,0,4.4,0.5,6.4,1.3c2,0.9,3.9,1.8,5.7,3c2.5,1.6,4.7,1.3,6.2-0.5l4.1-4.7
	c0.8-0.8,1.2-1.8,1.3-2.9c-0.1-1.2-0.7-2.2-1.6-3c-1.7-1.5-4.5-3.1-8.2-4.7c-3.7-1.6-8.4-2.4-13.9-2.4c-3.4-0.1-6.7,0.4-9.9,1.4
	c-2.7,0.9-5.3,2.2-7.6,3.9c-2.1,1.6-3.7,3.6-4.9,6c-1.1,2.3-1.7,4.8-1.7,7.3c0,4.7,1.4,8.5,4.2,11.3c2.8,2.8,6.5,4.7,11.1,5.6l9,2
	c1.9,0.3,3.9,0.9,5.7,1.8c1,0.4,1.6,1.4,1.6,2.5c0,1-0.5,1.9-1.6,2.7s-2.9,1.3-5.3,1.3c-2.4,0-4.9-0.5-7.1-1.6c-2.1-1-4-2.3-5.8-3.8
	c-0.8-0.6-1.6-1.1-2.6-1.5c-1-0.3-2.3,0-3.6,1.1l-4.9,3.7c-1.4,1-2.1,2.7-1.7,4.3c0.3,1.7,1.6,3.3,4.1,5.2
	c6.2,4.2,13.6,6.4,21.1,6.2c3.5,0,7-0.4,10.3-1.4c2.9-0.9,5.6-2.2,8-4c2.2-1.6,4-3.7,5.2-6.2c1.2-2.4,1.8-5,1.8-7.7
	c0.1-2.4-0.4-4.8-1.4-7C366.8,421,365.5,419.3,363.9,417.9L363.9,417.9z M413.3,431.6c-0.5-0.9-1.4-1.5-2.5-1.7
	c-1,0-2.1,0.3-2.9,0.9c-1.4,0.9-3,1.4-4.6,1.5c-0.5,0-1.1-0.1-1.6-0.2c-0.6-0.1-1.1-0.4-1.5-0.8c-0.5-0.5-0.9-1.1-1.2-1.7
	c-0.4-1-0.6-2-0.5-3v-20.5h14.6c0.9,0,1.7-0.4,2.3-1s1-1.3,1-2.2v-8.7c0-0.9-0.3-1.7-1-2.2c-0.6-0.6-1.4-0.9-2.2-0.9h-14.7v-14
	c0-0.8-0.3-1.7-0.9-2.2s-1.3-0.8-2.1-0.9h-11.4c-0.8,0-1.6,0.3-2.2,0.9c-0.6,0.6-1,1.4-1,2.2v14h-6.5c-0.8,0-1.6,0.3-2.2,1
	c-0.5,0.6-0.8,1.4-0.8,2.2v8.7c0,0.8,0.3,1.6,0.8,2.2c0.5,0.7,1.3,1,2.2,1h6.5v24.4c-0.1,2.9,0.5,5.8,1.7,8.4
	c1.1,2.2,2.5,4.1,4.4,5.7c1.8,1.5,3.9,2.6,6.2,3.2c2.3,0.7,4.7,1.1,7.1,1.1c3.1,0,6.3-0.5,9.3-1.5c2.8-0.9,5.3-2.5,7.3-4.6
	c1.3-1.3,1.4-3.4,0.4-4.9L413.3,431.6z M475.1,391.1h-11.3c-0.8,0-1.5,0.3-2.1,0.9c-0.6,0.6-0.9,1.4-0.9,2.3v1.4
	c-1.4-1.7-3.1-3-5.1-3.9c-3.1-1.5-6.5-2.2-9.9-2.2c-7.3,0-14.2,2.9-19.4,8c-2.7,2.7-4.8,5.9-6.2,9.4c-1.6,3.9-2.4,8.1-2.3,12.3
	c-0.1,4.2,0.7,8.4,2.3,12.4c1.4,3.5,3.6,6.7,6.2,9.4c5.1,5.2,12,8.1,19.3,8.1c3.4,0.1,6.8-0.7,9.9-2.1c2-1,3.8-2.3,5.2-3.9v1.5
	c0,0.8,0.3,1.6,0.9,2.1c0.6,0.6,1.3,0.9,2.1,0.9h11.3c1.7,0,3-1.3,3-3v-50.3c0-0.8-0.3-1.6-0.8-2.2
	C476.8,391.5,476,391.1,475.1,391.1L475.1,391.1z M459.9,424.8c-0.6,1.6-1.5,3-2.7,4.3c-1.2,1.2-2.5,2.2-4,2.9
	c-1.6,0.7-3.3,1.1-5.1,1.1s-3.4-0.4-5-1.1c-1.5-0.7-2.9-1.7-4.1-2.9s-2.1-2.7-2.6-4.3c-1.2-3.4-1.2-7.1,0-10.5
	c0.6-1.6,1.5-3,2.6-4.2c1.2-1.2,2.6-2.2,4.1-2.9c1.6-0.7,3.3-1.1,5-1.1s3.4,0.3,5.1,1.1c1.5,0.7,2.8,1.6,4,2.8s2.1,2.6,2.7,4.2
	C461.2,417.5,461.2,421.4,459.9,424.8z M537.1,430.9l-6.5-5c-1.2-1-2.4-1.3-3.4-0.9c-0.9,0.4-1.7,1-2.4,1.7
	c-1.4,1.7-3.1,3.2-4.9,4.5c-2,1.1-4.1,1.7-6.3,1.5c-2.6,0-5-0.7-7.1-2.2s-3.7-3.5-4.5-6c-0.6-1.7-0.9-3.4-0.9-5.1
	c0-1.8,0.3-3.5,0.9-5.3c0.6-1.6,1.4-3,2.6-4.2s2.5-2.2,4-2.8c1.6-0.7,3.3-1.1,5.1-1.1c2.2-0.1,4.4,0.5,6.3,1.6
	c1.9,1.2,3.5,2.7,4.9,4.5c0.6,0.7,1.4,1.3,2.3,1.7c1,0.4,2.2,0.1,3.4-0.9l6.5-4.9c0.8-0.5,1.4-1.3,1.7-2.2c0.4-1,0.3-2.1-0.3-3
	c-2.5-3.9-5.9-7.1-10-9.4c-4.3-2.4-9.4-3.7-15.1-3.7c-4,0-8,0.8-11.8,2.3c-3.6,1.5-6.8,3.6-9.5,6.3c-2.7,2.7-4.9,5.9-6.4,9.5
	c-3.1,7.5-3.1,15.9,0,23.4c1.5,3.5,3.6,6.8,6.4,9.4c5.7,5.6,13.3,8.6,21.3,8.6c5.7,0,10.8-1.3,15.1-3.7c4.1-2.3,7.6-5.5,10.1-9.5
	c0.5-0.9,0.6-2,0.3-2.9C538.5,432.3,537.9,431.5,537.1,430.9L537.1,430.9z M597.3,442.6l-17.9-26.2l15.3-20.2c0.7-0.9,1-2.2,0.6-3.3
	c-0.3-0.8-1-1.6-2.9-1.6h-12.1c-0.7,0-1.4,0.2-2,0.5c-0.8,0.4-1.4,1-1.8,1.7l-12.2,17.1h-2.9v-40.4c0-0.8-0.3-1.6-0.9-2.2
	c-0.6-0.6-1.3-0.9-2.1-0.9h-11.3c-0.8,0-1.6,0.3-2.2,0.9c-0.6,0.6-0.9,1.3-0.9,2.2v74.5c0,0.9,0.3,1.6,0.9,2.2
	c0.6,0.6,1.4,0.9,2.2,0.9h11.3c0.8,0,1.6-0.3,2.1-0.9c0.6-0.6,0.9-1.4,0.9-2.2v-19.7h3.2l13.3,20.4c0.8,1.5,2.3,2.4,3.9,2.4h12.7
	c1.9,0,2.7-0.9,3.1-1.7C598.1,444.8,598,443.5,597.3,442.6L597.3,442.6z M315.5,391.2h-12.7c-1,0-1.9,0.3-2.6,1
	c-0.6,0.6-1,1.3-1.2,2.1l-9.4,34.8h-2.3l-10-34.8c-0.2-0.7-0.5-1.4-1-2.1c-0.6-0.7-1.4-1.1-2.3-1.1h-12.9c-1.7,0-2.7,0.5-3.2,1.7
	c-0.3,1-0.3,2.1,0,3.1l16,49c0.3,0.7,0.6,1.5,1.2,2c0.6,0.6,1.5,0.9,2.4,0.9h6.8l-0.6,1.6l-1.5,4.5c-0.5,1.4-1.3,2.6-2.5,3.5
	c-1.1,0.8-2.4,1.3-3.8,1.2c-1.2,0-2.3-0.3-3.4-0.7c-1.1-0.5-2.1-1.1-3-1.8c-0.8-0.6-1.8-0.9-2.9-0.9h-0.1c-1.2,0.1-2.3,0.7-2.9,1.8
	l-4,5.9c-1.6,2.6-0.7,4.2,0.3,5.1c2.2,2,4.7,3.5,7.5,4.4c3.1,1.1,6.3,1.6,9.5,1.6c5.8,0,10.6-1.6,14.3-4.7c3.8-3.4,6.7-7.8,8.1-12.8
	l18.6-60.6c0.4-1.1,0.5-2.2,0.1-3.2C317.9,392,317.2,391.1,315.5,391.2L315.5,391.2z"/>
</svg>
